<?xml version="1.0" encoding="UTF-8"?>
<svg width="434px" height="66px" viewBox="0 0 434 66" version="1.1" xmlns="http://www.w3.org/2000/svg" xmlns:xlink="http://www.w3.org/1999/xlink">
    <!-- Generator: Sketch 51.1 (57501) - http://www.bohemiancoding.com/sketch -->
    <title>02.03.01 Logos / Primary Logo / With circles</title>
    <desc>Created with Sketch.</desc>
    <defs>
        <polygon id="path-1" points="0.06 0.077 0.06 38.94 39.997 38.94 39.997 0.077"></polygon>
        <polygon id="path-3" points="0.212364996 52.94 87.774 52.94 87.774 0.316 0.212364996 0.316"></polygon>
    </defs>
    <g id="2.-Identity-✓" stroke="none" stroke-width="1" fill="none" fill-rule="evenodd">
        <g id="02.03.01.-Logo's" transform="translate(-147.000000, -278.000000)">
            <g id="02-Identity-/-03-Logos-/-Primary-Logo-/-With-circles" transform="translate(147.000000, 278.000000)">
                <g id="Group-7">
                    <g>
                        <g id="Group-3" transform="translate(0.000000, 27.000000)">
                            <mask id="mask-2" fill="white">
                                <use xlink:href="#path-1"></use>
                            </mask>
                            <g id="Clip-2"></g>
                            <path d="M20.816,39 C9.338,39 0,29.662 0,18.183 C0,10.71 4.039,3.772 10.541,0.077 L14.132,6.392 C9.896,8.8 7.265,13.318 7.265,18.183 C7.265,25.655 13.345,31.735 20.816,31.735 C26.275,31.735 31.177,28.485 33.306,23.457 L39.997,26.287 C36.729,34.01 29.2,39 20.816,39" id="Fill-1" fill="#D40D47" mask="url(#mask-2)"></path>
                        </g>
                        <path d="M39.997,53.287 L33.304,50.457 C34.01,48.788 34.368,47.013 34.368,45.183 C34.368,37.711 28.289,31.632 20.816,31.632 C18.468,31.632 16.157,32.241 14.132,33.392 L10.541,27.077 C13.658,25.304 17.212,24.367 20.816,24.367 C32.295,24.367 41.634,33.705 41.634,45.183 C41.634,47.991 41.083,50.718 39.997,53.287" id="Fill-4" fill="#FABB2E"></path>
                        <path d="M37.779,7.635 C26.427,7.635 17.192,16.87 17.192,28.221 C17.192,39.573 26.427,48.807 37.779,48.807 C49.13,48.807 58.365,39.573 58.365,28.221 C58.365,16.87 49.13,7.635 37.779,7.635 Z M9.927,28.221 C9.927,12.864 22.421,0.37 37.779,0.37 C53.136,0.37 65.63,12.864 65.63,28.221 C65.63,43.579 53.136,56.073 37.779,56.073 C22.421,56.073 9.927,43.579 9.927,28.221 Z" id="Fill-5" fill="#2AABCE"></path>
                        <path d="M37.779,56.073 C22.421,56.073 9.927,43.579 9.927,28.221 C9.927,26.215 11.553,24.589 13.56,24.589 C15.566,24.589 17.192,26.215 17.192,28.221 C17.192,39.573 26.427,48.807 37.779,48.807 C39.785,48.807 41.411,50.434 41.411,52.44 C41.411,54.446 39.785,56.073 37.779,56.073" id="Fill-6" fill="#555390"></path>
                        <g id="Group-10" transform="translate(300.000000, 13.000000)">
                            <mask id="mask-4" fill="white">
                                <use xlink:href="#path-3"></use>
                            </mask>
                            <g id="Clip-8"></g>
                            <path d="M67.483,30.105 C62.237,30.105 57.984,25.853 57.984,20.607 C57.984,15.361 62.237,11.109 67.483,11.109 C72.728,11.109 76.981,15.361 76.981,20.607 C76.981,25.853 72.728,30.105 67.483,30.105 Z M67.483,0.316 C56.276,0.316 47.192,9.401 47.192,20.607 C47.192,31.814 56.276,40.898 67.483,40.898 C78.689,40.898 87.774,31.814 87.774,20.607 C87.774,9.401 78.689,0.316 67.483,0.316 L67.483,0.316 Z" id="Fill-7" fill="#D40D47" mask="url(#mask-4)"></path>
                            <path d="M41.952,1.284 L34.223,1.284 C33.064,1.284 32.389,1.379 31.903,2.345 L22.242,24.182 L22.146,24.182 L12.387,2.345 C12.095,1.766 11.613,1.284 10.743,1.284 L2.047,1.284 C0.6,1.284 -0.174,2.539 0.406,3.795 L16.153,37.227 L10.43,50.39 C9.754,51.743 10.624,53 12.074,53 L20.383,53 C21.154,53 21.735,52.419 22.027,51.84 L43.595,3.795 C44.271,2.539 43.5,1.284 41.952,1.284" id="Fill-9" fill="#D40D47" mask="url(#mask-4)"></path>
                        </g>
                        <path d="M271.241,28.776 C271.726,25.105 274.915,22.206 278.779,22.206 C282.45,22.206 285.54,25.201 285.832,28.776 L271.241,28.776 Z M279.068,13.316 C267.569,13.316 259.358,22.688 259.358,33.608 C259.358,44.719 267.569,53.898 279.163,53.898 C285.253,53.898 289.669,52.108 292.823,49.41 C293.634,48.717 293.769,47.511 293.159,46.635 L290.394,42.669 C289.789,41.802 288.641,41.543 287.702,42.029 C285.38,43.233 282.695,43.947 279.097,43.947 C273.491,43.947 270.663,41.17 270.371,37.209 L295.107,37.209 C295.976,37.209 296.845,36.533 296.943,35.565 C297.039,34.889 297.137,33.633 297.137,32.957 C297.137,22.522 290.708,13.316 279.068,13.316 L279.068,13.316 Z" id="Fill-11" fill="#D40D47"></path>
                        <path d="M138.986,13.316 C132.032,13.316 127.006,17.568 125.362,19.308 C122.174,15.442 118.309,13.316 112.801,13.316 C107.107,13.316 103.076,15.98 100.933,17.935 C100.276,16.91 99.48,15.401 99.48,15.401 C99.128,14.844 98.622,14.284 97.752,14.284 L93.285,14.284 C92.317,14.284 91.448,15.056 91.448,16.119 L91.448,51.097 C91.448,52.063 92.317,52.932 93.285,52.932 L101.109,52.932 C102.077,52.932 102.946,52.063 102.946,51.097 L102.946,29.839 C103.914,27.23 106.233,23.751 111.062,23.751 C115.99,23.751 118.214,26.94 118.214,31.964 L118.214,51.097 C118.214,52.063 118.985,52.932 120.048,52.932 L127.295,52.932 C128.262,52.932 129.132,52.063 129.132,51.097 L129.132,31.482 C129.132,29.742 129.033,27.809 129.033,27.809 C129.033,27.809 131.546,23.751 137.153,23.751 C141.982,23.751 144.399,26.94 144.399,31.964 L144.399,51.097 C144.399,52.063 145.17,52.932 146.233,52.932 L154.061,52.932 C155.124,52.932 155.895,52.063 155.895,51.097 L155.895,32.642 C155.895,22.497 151.354,13.316 138.986,13.316" id="Fill-12" fill="#D40D47"></path>
                        <path d="M431.464,14.284 L424.122,14.284 C422.573,14.284 421.996,14.669 421.996,16.119 L421.996,36.216 C421.415,39.695 418.325,43.463 414.264,43.463 C409.822,43.463 407.21,40.274 407.21,35.153 L407.21,16.119 C407.21,15.056 406.341,14.284 405.377,14.284 L397.454,14.284 C396.486,14.284 395.617,15.056 395.617,16.119 L395.617,34.864 C395.617,44.719 399.964,53.898 411.948,53.898 C418.283,53.898 421.799,51.115 423.814,49.28 L423.815,49.314 C424.472,50.339 425.269,51.847 425.269,51.847 C425.62,52.405 426.127,52.965 426.996,52.965 L431.464,52.965 C432.431,52.965 433.301,52.192 433.301,51.129 L433.301,16.119 C433.301,15.056 432.431,14.284 431.464,14.284" id="Fill-13" fill="#D40D47"></path>
                        <path d="M234.315,13.316 C228.096,13.316 223.799,16.205 221.7,18.061 L221.673,17.935 C221.016,16.91 220.219,15.401 220.219,15.401 C219.869,14.844 219.362,14.284 218.492,14.284 L214.025,14.284 C213.057,14.284 212.188,15.056 212.188,16.119 L212.188,51.097 C212.188,52.063 213.057,52.932 214.025,52.932 L221.849,52.932 C222.817,52.932 223.686,52.063 223.686,51.097 L223.686,29.63 C224.732,27.048 227.779,23.751 232.672,23.751 C237.31,23.751 239.918,26.94 239.918,31.964 L239.918,51.097 C239.918,52.063 240.693,52.932 241.755,52.932 L249.678,52.932 C250.646,52.932 251.515,52.063 251.515,51.097 L251.515,32.545 C251.515,22.497 246.588,13.316 234.315,13.316" id="Fill-14" fill="#D40D47"></path>
                        <path d="M184.036,43.105 C178.79,43.105 174.538,38.853 174.538,33.607 C174.538,28.361 178.79,24.109 184.036,24.109 C189.282,24.109 193.535,28.361 193.535,33.607 C193.535,38.853 189.282,43.105 184.036,43.105 Z M184.036,13.316 C172.83,13.316 163.745,22.401 163.745,33.607 C163.745,44.814 172.83,53.898 184.036,53.898 C195.243,53.898 204.327,44.814 204.327,33.607 C204.327,22.401 195.243,13.316 184.036,13.316 L184.036,13.316 Z" id="Fill-15" fill="#D40D47"></path>
                    </g>
                </g>
            </g>
        </g>
    </g>
</svg>